<svg id="Camada_1" data-name="Camada 1" xmlns="http://www.w3.org/2000/svg" xmlns:xlink="http://www.w3.org/1999/xlink" viewBox="0 0 350 80"><defs><linearGradient id="Degradado_sin_nombre_5" x1="79.95" y1="38.6" x2="186.43" y2="38.6" gradientUnits="userSpaceOnUse"><stop offset="0" stop-color="#fd1f26"/><stop offset="1" stop-color="#ff890a"/></linearGradient><linearGradient id="Degradado_sin_nombre_5-6" x1="5.1" y1="36.81" x2="76.32" y2="36.81" xlink:href="#Degradado_sin_nombre_5"/><linearGradient id="Degradado_sin_nombre_5-7" x1="42.22" y1="60.66" x2="52.08" y2="60.66" gradientTransform="translate(56.71 -15.57) rotate(45)" xlink:href="#Degradado_sin_nombre_5"/><linearGradient id="Degradado_sin_nombre_5-8" x1="61.9" y1="56.78" x2="71.77" y2="56.78" gradientTransform="translate(59.72 -30.63) rotate(45)" xlink:href="#Degradado_sin_nombre_5"/><linearGradient id="Degradado_sin_nombre_5-9" x1="26.64" y1="29.04" x2="64.62" y2="29.04" xlink:href="#Degradado_sin_nombre_5"/><linearGradient id="Degradado_sin_nombre_5-10" x1="50.38" y1="30.62" x2="74.54" y2="30.62" xlink:href="#Degradado_sin_nombre_5"/></defs><title>logo</title><path d="M190.79,48V22.16H193l11.3,20.17h-1.13l11.21-20.17h2.15V48H214V26.26h.6L204.25,44.73H203L192.63,26.26h.67V48Z" style="fill:#000024"/><path d="M232.24,48.2a9.94,9.94,0,0,1-5.09-1.27,9,9,0,0,1-3.42-3.51,10.35,10.35,0,0,1-1.24-5.12,10.66,10.66,0,0,1,1.18-5.1,9.11,9.11,0,0,1,3.25-3.49,8.79,8.79,0,0,1,12.5,3.44,11.07,11.07,0,0,1,1.16,5.15c0,.12,0,.25,0,.39a2.88,2.88,0,0,0,0,.42H224.4v-2h14.81l-1,.77a7.91,7.91,0,0,0-.86-3.75A6.54,6.54,0,0,0,235,31.62a6.32,6.32,0,0,0-3.43-.93,6.46,6.46,0,0,0-3.43.93,6.21,6.21,0,0,0-2.36,2.58,8.22,8.22,0,0,0-.85,3.81v.4a7.92,7.92,0,0,0,.93,3.9,6.73,6.73,0,0,0,2.62,2.62,7.68,7.68,0,0,0,3.83.94,8.14,8.14,0,0,0,3.17-.62A6.54,6.54,0,0,0,238,43.32l1.42,1.7a8,8,0,0,1-3.1,2.37A10,10,0,0,1,232.24,48.2Z" style="fill:#000024"/><path d="M246.06,48V28.62h2.4v5.29l-.24-.93a6.32,6.32,0,0,1,2.61-3.38,8.44,8.44,0,0,1,4.56-1.16V31l-.28,0-.29,0a5.82,5.82,0,0,0-4.59,1.87,7.69,7.69,0,0,0-1.66,5.3V48Z" style="fill:#000024"/><path d="M267.83,48.2a9.55,9.55,0,0,1-4.93-1.27,9.06,9.06,0,0,1-3.41-3.51,10.35,10.35,0,0,1-1.24-5.12,10.28,10.28,0,0,1,1.24-5.13,9,9,0,0,1,3.41-3.48,9.74,9.74,0,0,1,4.93-1.25,9.42,9.42,0,0,1,4.28,1,7.05,7.05,0,0,1,3,2.88l-1.87,1.33a6.08,6.08,0,0,0-2.37-2.18,6.8,6.8,0,0,0-3.08-.7,6.88,6.88,0,0,0-3.57.94,6.77,6.77,0,0,0-2.5,2.64,8.17,8.17,0,0,0-.92,4,8.17,8.17,0,0,0,.92,4,6.77,6.77,0,0,0,2.5,2.64,6.88,6.88,0,0,0,3.57.94,6.8,6.8,0,0,0,3.08-.7A6,6,0,0,0,273.24,43l1.87,1.33a7.19,7.19,0,0,1-3,2.86A9.17,9.17,0,0,1,267.83,48.2Z" style="fill:#000024"/><path d="M285.6,48.2a8.47,8.47,0,0,1-3.62-.72,5.44,5.44,0,0,1-2.35-2,5.36,5.36,0,0,1-.81-2.94,5.53,5.53,0,0,1,.69-2.75,4.92,4.92,0,0,1,2.26-2,9.94,9.94,0,0,1,4.22-.75h6.4v2h-6.33c-1.79,0-3,.34-3.72,1a3.29,3.29,0,0,0-1,2.48,3.24,3.24,0,0,0,1.24,2.65,5.34,5.34,0,0,0,3.46,1,6.52,6.52,0,0,0,3.66-1,5.85,5.85,0,0,0,2.25-2.94l.56,1.81A6.12,6.12,0,0,1,290,47.06,7.88,7.88,0,0,1,285.6,48.2ZM292,48V43.73l-.1-.7V35.86a5.17,5.17,0,0,0-1.33-3.8,5.32,5.32,0,0,0-3.94-1.33,9.44,9.44,0,0,0-3.43.63A8.63,8.63,0,0,0,280.45,33l-1.14-2a10,10,0,0,1,3.4-1.94,12.84,12.84,0,0,1,4.17-.68,7.75,7.75,0,0,1,5.56,1.86q2,1.87,2,5.67V48Z" style="fill:#000024"/><path d="M309,48.2A9.16,9.16,0,0,1,304.21,47a8.91,8.91,0,0,1-3.3-3.5,10.7,10.7,0,0,1-1.2-5.15,10.7,10.7,0,0,1,1.2-5.17,8.7,8.7,0,0,1,3.3-3.45A9.15,9.15,0,0,1,309,28.44a8.43,8.43,0,0,1,4.37,1.14,8.19,8.19,0,0,1,3.07,3.35,11.4,11.4,0,0,1,1.15,5.37,11.75,11.75,0,0,1-1.13,5.36A8.18,8.18,0,0,1,313.36,47,8.38,8.38,0,0,1,309,48.2Zm.18-2.33a6.75,6.75,0,0,0,3.55-.94,6.57,6.57,0,0,0,2.48-2.66,9.25,9.25,0,0,0,0-8,6.65,6.65,0,0,0-2.48-2.64,6.75,6.75,0,0,0-3.55-.94,6.63,6.63,0,0,0-3.5.94,6.84,6.84,0,0,0-2.47,2.64,9.07,9.07,0,0,0,0,8,6.76,6.76,0,0,0,2.47,2.66A6.63,6.63,0,0,0,309.14,45.87Zm7,2.15V42.18l.25-3.92L316,34.35V20.61h2.51V48Z" style="fill:#000024"/><path d="M333.46,48.2a9,9,0,0,1-8.2-4.8A10.35,10.35,0,0,1,324,38.3a10.28,10.28,0,0,1,1.24-5.13,9.11,9.11,0,0,1,3.35-3.48,10,10,0,0,1,9.74,0,9.21,9.21,0,0,1,3.36,3.48,10.38,10.38,0,0,1,1.22,5.11,10.56,10.56,0,0,1-1.22,5.12,9.05,9.05,0,0,1-3.38,3.51A9.39,9.39,0,0,1,333.46,48.2Zm0-2.33a6.69,6.69,0,0,0,3.56-.94,6.6,6.6,0,0,0,2.46-2.66,9.25,9.25,0,0,0,0-8A6.89,6.89,0,0,0,330,31.67a6.79,6.79,0,0,0-2.48,2.64,9.07,9.07,0,0,0,0,8,6.74,6.74,0,0,0,2.46,2.66A6.55,6.55,0,0,0,333.46,45.87Z" style="fill:#000024"/><path d="M89.7,48.5a17.54,17.54,0,0,1-5.53-.87A12.25,12.25,0,0,1,80,45.39l1.59-3.73a12.64,12.64,0,0,0,3.68,2,12.81,12.81,0,0,0,4.48.81,9.42,9.42,0,0,0,3.15-.44,3.85,3.85,0,0,0,1.77-1.2,2.86,2.86,0,0,0,.56-1.72,2.45,2.45,0,0,0-.81-1.91,5.84,5.84,0,0,0-2.1-1.14c-.86-.28-1.82-.54-2.87-.78s-2.09-.52-3.14-.86a14.06,14.06,0,0,1-2.88-1.32A6.12,6.12,0,0,1,81.27,33a6.66,6.66,0,0,1-.79-3.4,7.23,7.23,0,0,1,1.08-3.86A7.49,7.49,0,0,1,84.84,23a12.94,12.94,0,0,1,5.61-1.06,17,17,0,0,1,4.41.59,12.6,12.6,0,0,1,3.82,1.7l-1.45,3.73a13.22,13.22,0,0,0-3.43-1.53,12.6,12.6,0,0,0-3.39-.5,8.34,8.34,0,0,0-3.07.48,3.66,3.66,0,0,0-1.75,1.28A3,3,0,0,0,85,29.4a2.43,2.43,0,0,0,.79,1.9,5.55,5.55,0,0,0,2.09,1.13q1.29.41,2.88.78c1.06.24,2.11.53,3.14.86a13.65,13.65,0,0,1,2.87,1.3,6.2,6.2,0,0,1,2.1,2.1,6.38,6.38,0,0,1,.8,3.34,7.18,7.18,0,0,1-1.08,3.83,7.54,7.54,0,0,1-3.31,2.81A13.14,13.14,0,0,1,89.7,48.5Z" style="fill:#ff890a"/><path d="M112.18,48.39a9.26,9.26,0,0,1-4.24-.94,6.65,6.65,0,0,1-2.88-2.89,10.18,10.18,0,0,1-1-4.89V28.4h4.45V39.08A5.73,5.73,0,0,0,109.64,43a4.09,4.09,0,0,0,3.25,1.31,5.45,5.45,0,0,0,2.72-.66,4.35,4.35,0,0,0,1.8-2,7.61,7.61,0,0,0,.64-3.28v-10h4.41V48.13h-4.2V42.77l.74,1.66a6.84,6.84,0,0,1-2.79,2.92A8.09,8.09,0,0,1,112.18,48.39Z" style="fill:#ff890a"/><path d="M128.65,55.29V28.4h4.2v4.66l-.17,5.24.35,5.25V55.29Zm10.42-6.9a8.27,8.27,0,0,1-4.2-1.09,7.55,7.55,0,0,1-3-3.34,13,13,0,0,1-1.1-5.69,13.45,13.45,0,0,1,1-5.71,7.15,7.15,0,0,1,3-3.33,8.5,8.5,0,0,1,4.27-1.08A9.58,9.58,0,0,1,144,29.4,9.11,9.11,0,0,1,147.4,33a11,11,0,0,1,1.25,5.32,10.91,10.91,0,0,1-1.25,5.33A9.12,9.12,0,0,1,144,47.13,9.58,9.58,0,0,1,139.07,48.39Zm-.53-3.92a5.39,5.39,0,0,0,2.88-.77,5.55,5.55,0,0,0,2-2.18,7.55,7.55,0,0,0,0-6.52,5.4,5.4,0,0,0-2-2.15A5.5,5.5,0,0,0,133.7,35a7.55,7.55,0,0,0,0,6.52,5.6,5.6,0,0,0,2,2.18A5.36,5.36,0,0,0,138.54,44.47Z" style="fill:#ff890a"/><path d="M162.08,48.39a11.16,11.16,0,0,1-5.5-1.31,9.38,9.38,0,0,1-3.64-3.59,10.36,10.36,0,0,1-1.29-5.22A10.6,10.6,0,0,1,152.91,33a9.23,9.23,0,0,1,3.46-3.58,9.61,9.61,0,0,1,5-1.31,9.46,9.46,0,0,1,4.91,1.27A9,9,0,0,1,169.71,33,11.22,11.22,0,0,1,171,38.41c0,.18,0,.39,0,.65s0,.49-.05.68H155.15V36.68h13.4l-1.77,1a6.19,6.19,0,0,0-.65-3,5,5,0,0,0-1.9-2,5.38,5.38,0,0,0-2.82-.72,5.64,5.64,0,0,0-2.85.72,4.82,4.82,0,0,0-1.92,2,6.7,6.7,0,0,0-.67,3.07v.74a6.32,6.32,0,0,0,.76,3.14,5.22,5.22,0,0,0,2.17,2.12,6.8,6.8,0,0,0,3.29.76,7.26,7.26,0,0,0,2.86-.55,6.9,6.9,0,0,0,2.26-1.63l2.4,2.88a8.49,8.49,0,0,1-3.23,2.36A11.1,11.1,0,0,1,162.08,48.39Z" style="fill:#ff890a"/><path d="M175.58,48.13V28.4h4.21v5.43l-.5-1.58a6,6,0,0,1,2.65-3.05,8.93,8.93,0,0,1,4.49-1.05v4.39l-.5-.06h-.46a5.37,5.37,0,0,0-4,1.51A6.37,6.37,0,0,0,180,38.6v9.53Z" style="fill:#ff890a"/><path d="M89.7,48.5a17.54,17.54,0,0,1-5.53-.87A12.25,12.25,0,0,1,80,45.39l1.59-3.73a12.64,12.64,0,0,0,3.68,2,12.81,12.81,0,0,0,4.48.81,9.42,9.42,0,0,0,3.15-.44,3.85,3.85,0,0,0,1.77-1.2,2.86,2.86,0,0,0,.56-1.72,2.45,2.45,0,0,0-.81-1.91,5.84,5.84,0,0,0-2.1-1.14c-.86-.28-1.82-.54-2.87-.78s-2.09-.52-3.14-.86a14.06,14.06,0,0,1-2.88-1.32A6.12,6.12,0,0,1,81.27,33a6.66,6.66,0,0,1-.79-3.4,7.23,7.23,0,0,1,1.08-3.86A7.49,7.49,0,0,1,84.84,23a12.94,12.94,0,0,1,5.61-1.06,17,17,0,0,1,4.41.59,12.6,12.6,0,0,1,3.82,1.7l-1.45,3.73a13.22,13.22,0,0,0-3.43-1.53,12.6,12.6,0,0,0-3.39-.5,8.34,8.34,0,0,0-3.07.48,3.66,3.66,0,0,0-1.75,1.28A3,3,0,0,0,85,29.4a2.43,2.43,0,0,0,.79,1.9,5.55,5.55,0,0,0,2.09,1.13q1.29.41,2.88.78c1.06.24,2.11.53,3.14.86a13.65,13.65,0,0,1,2.87,1.3,6.2,6.2,0,0,1,2.1,2.1,6.38,6.38,0,0,1,.8,3.34,7.18,7.18,0,0,1-1.08,3.83,7.54,7.54,0,0,1-3.31,2.81A13.14,13.14,0,0,1,89.7,48.5Z" style="fill:url(#Degradado_sin_nombre_5)"/><path d="M112.18,48.39a9.26,9.26,0,0,1-4.24-.94,6.65,6.65,0,0,1-2.88-2.89,10.18,10.18,0,0,1-1-4.89V28.4h4.45V39.08A5.73,5.73,0,0,0,109.64,43a4.09,4.09,0,0,0,3.25,1.31,5.45,5.45,0,0,0,2.72-.66,4.35,4.35,0,0,0,1.8-2,7.61,7.61,0,0,0,.64-3.28v-10h4.41V48.13h-4.2V42.77l.74,1.66a6.84,6.84,0,0,1-2.79,2.92A8.09,8.09,0,0,1,112.18,48.39Z" style="fill:url(#Degradado_sin_nombre_5)"/><path d="M128.65,55.29V28.4h4.2v4.66l-.17,5.24.35,5.25V55.29Zm10.42-6.9a8.27,8.27,0,0,1-4.2-1.09,7.55,7.55,0,0,1-3-3.34,13,13,0,0,1-1.1-5.69,13.45,13.45,0,0,1,1-5.71,7.15,7.15,0,0,1,3-3.33,8.5,8.5,0,0,1,4.27-1.08A9.58,9.58,0,0,1,144,29.4,9.11,9.11,0,0,1,147.4,33a11,11,0,0,1,1.25,5.32,10.91,10.91,0,0,1-1.25,5.33A9.12,9.12,0,0,1,144,47.13,9.58,9.58,0,0,1,139.07,48.39Zm-.53-3.92a5.39,5.39,0,0,0,2.88-.77,5.55,5.55,0,0,0,2-2.18,7.55,7.55,0,0,0,0-6.52,5.4,5.4,0,0,0-2-2.15A5.5,5.5,0,0,0,133.7,35a7.55,7.55,0,0,0,0,6.52,5.6,5.6,0,0,0,2,2.18A5.36,5.36,0,0,0,138.54,44.47Z" style="fill:url(#Degradado_sin_nombre_5)"/><path d="M162.08,48.39a11.16,11.16,0,0,1-5.5-1.31,9.38,9.38,0,0,1-3.64-3.59,10.36,10.36,0,0,1-1.29-5.22A10.6,10.6,0,0,1,152.91,33a9.23,9.23,0,0,1,3.46-3.58,9.61,9.61,0,0,1,5-1.31,9.46,9.46,0,0,1,4.91,1.27A9,9,0,0,1,169.71,33,11.22,11.22,0,0,1,171,38.41c0,.18,0,.39,0,.65s0,.49-.05.68H155.15V36.68h13.4l-1.77,1a6.19,6.19,0,0,0-.65-3,5,5,0,0,0-1.9-2,5.38,5.38,0,0,0-2.82-.72,5.64,5.64,0,0,0-2.85.72,4.82,4.82,0,0,0-1.92,2,6.7,6.7,0,0,0-.67,3.07v.74a6.32,6.32,0,0,0,.76,3.14,5.22,5.22,0,0,0,2.17,2.12,6.8,6.8,0,0,0,3.29.76,7.26,7.26,0,0,0,2.86-.55,6.9,6.9,0,0,0,2.26-1.63l2.4,2.88a8.49,8.49,0,0,1-3.23,2.36A11.1,11.1,0,0,1,162.08,48.39Z" style="fill:url(#Degradado_sin_nombre_5)"/><path d="M175.58,48.13V28.4h4.21v5.43l-.5-1.58a6,6,0,0,1,2.65-3.05,8.93,8.93,0,0,1,4.49-1.05v4.39l-.5-.06h-.46a5.37,5.37,0,0,0-4,1.51A6.37,6.37,0,0,0,180,38.6v9.53Z" style="fill:url(#Degradado_sin_nombre_5)"/><path d="M148.24,67.29a6.15,6.15,0,0,1-2.27-.43,4.12,4.12,0,0,1-1.66-1.1l.36-.62a4.25,4.25,0,0,0,1.52,1,5.2,5.2,0,0,0,2,.41,4.39,4.39,0,0,0,1.76-.3,2.21,2.21,0,0,0,1-.8,2,2,0,0,0,.33-1.11,1.72,1.72,0,0,0-.37-1.16,2.51,2.51,0,0,0-1-.69,9.14,9.14,0,0,0-1.31-.44c-.47-.11-.95-.24-1.43-.37a6.36,6.36,0,0,1-1.33-.53,2.54,2.54,0,0,1-1-.88,2.6,2.6,0,0,1-.37-1.44,2.82,2.82,0,0,1,.41-1.48,2.86,2.86,0,0,1,1.24-1.1,4.92,4.92,0,0,1,2.18-.42,5.69,5.69,0,0,1,1.77.28,4.57,4.57,0,0,1,1.48.74l-.29.66a5.16,5.16,0,0,0-3-1,4.23,4.23,0,0,0-1.71.3,2.28,2.28,0,0,0-1,.82,2.1,2.1,0,0,0-.32,1.13,1.73,1.73,0,0,0,.36,1.16,2.5,2.5,0,0,0,1,.7,8.89,8.89,0,0,0,1.32.43l1.44.38a6.65,6.65,0,0,1,1.31.53,2.62,2.62,0,0,1,1,.87,2.42,2.42,0,0,1,.37,1.41,2.79,2.79,0,0,1-.42,1.48,2.89,2.89,0,0,1-1.27,1.1A5.14,5.14,0,0,1,148.24,67.29Z" style="fill:#000024"/><path d="M158.81,67.27a4.12,4.12,0,0,1-2.15-.55,4,4,0,0,1-1.47-1.51,4.57,4.57,0,0,1-.53-2.21,4.78,4.78,0,0,1,.5-2.22,3.85,3.85,0,0,1,1.38-1.5,3.73,3.73,0,0,1,5.31,1.47,4.66,4.66,0,0,1,.51,2.22s0,.07,0,.1a.49.49,0,0,0,0,.12h-7.11v-.63h6.69l-.3.31a3.62,3.62,0,0,0-.4-1.76,3.13,3.13,0,0,0-1.1-1.23,3.13,3.13,0,0,0-3.2,0,3,3,0,0,0-1.1,1.23,3.8,3.8,0,0,0-.4,1.78V63a3.65,3.65,0,0,0,.44,1.83,3.07,3.07,0,0,0,1.21,1.24,3.4,3.4,0,0,0,1.75.44,3.67,3.67,0,0,0,1.45-.28,3,3,0,0,0,1.13-.89l.45.53a3.32,3.32,0,0,1-1.32,1A4.1,4.1,0,0,1,158.81,67.27Z" style="fill:#000024"/><path d="M169,67.27a3.87,3.87,0,0,1-1.79-.39,2.75,2.75,0,0,1-1.16-1.2,4.32,4.32,0,0,1-.41-2V58.79h.77v4.85a3,3,0,0,0,.7,2.16,2.51,2.51,0,0,0,1.95.74,3,3,0,0,0,1.58-.4,2.61,2.61,0,0,0,1-1.13,4.06,4.06,0,0,0,.35-1.74V58.79h.77v8.42H172V64.87l.11.27A3.14,3.14,0,0,1,171,66.7,3.39,3.39,0,0,1,169,67.27Z" style="fill:#000024"/><path d="M185.07,67.29a6.15,6.15,0,0,1-2.27-.43,4.12,4.12,0,0,1-1.66-1.1l.36-.62a4.29,4.29,0,0,0,1.51,1,5.28,5.28,0,0,0,2.05.41,4.39,4.39,0,0,0,1.76-.3,2.21,2.21,0,0,0,1-.8,2,2,0,0,0,.33-1.11,1.72,1.72,0,0,0-.37-1.16,2.51,2.51,0,0,0-1-.69,9.14,9.14,0,0,0-1.31-.44c-.47-.11-1-.24-1.43-.37a6.36,6.36,0,0,1-1.33-.53,2.45,2.45,0,0,1-1.33-2.32,2.91,2.91,0,0,1,.4-1.48,3,3,0,0,1,1.25-1.1,4.92,4.92,0,0,1,2.18-.42,5.63,5.63,0,0,1,1.76.28,4.62,4.62,0,0,1,1.49.74l-.29.66a5.16,5.16,0,0,0-3-1,4.23,4.23,0,0,0-1.71.3,2.28,2.28,0,0,0-1,.82,2.1,2.1,0,0,0-.32,1.13,1.73,1.73,0,0,0,.36,1.16,2.36,2.36,0,0,0,1,.7,8.89,8.89,0,0,0,1.32.43l1.44.38a6.65,6.65,0,0,1,1.31.53,2.62,2.62,0,0,1,1,.87A2.42,2.42,0,0,1,189,64.3a2.79,2.79,0,0,1-.42,1.48,2.89,2.89,0,0,1-1.27,1.1A5.14,5.14,0,0,1,185.07,67.29Z" style="fill:#000024"/><path d="M195.64,67.27a3.84,3.84,0,0,1-1.79-.39,2.77,2.77,0,0,1-1.17-1.2,4.32,4.32,0,0,1-.4-2V58.79h.77v4.85a3,3,0,0,0,.69,2.16,2.53,2.53,0,0,0,2,.74,2.93,2.93,0,0,0,1.57-.4,2.61,2.61,0,0,0,1-1.13,3.92,3.92,0,0,0,.36-1.74V58.79h.77v8.42h-.74V64.87l.1.27a3.09,3.09,0,0,1-1.18,1.56A3.35,3.35,0,0,1,195.64,67.27Z" style="fill:#000024"/><path d="M203.67,70.33V58.79h.74v2.76L204.29,63l.15,1.46v5.85Zm4-3.06a3.54,3.54,0,0,1-3.27-2,5.35,5.35,0,0,1,0-4.56,3.54,3.54,0,0,1,3.27-2,4,4,0,0,1,2,.54,3.74,3.74,0,0,1,1.41,1.51,5,5,0,0,1,0,4.44,3.74,3.74,0,0,1-1.41,1.51A4,4,0,0,1,207.71,67.27Zm0-.73a3.12,3.12,0,0,0,1.66-.44,3.07,3.07,0,0,0,1.17-1.25,4.31,4.31,0,0,0,0-3.71,3.19,3.19,0,0,0-5.65,0,4.31,4.31,0,0,0,0,3.71A3.05,3.05,0,0,0,206,66.1,3.1,3.1,0,0,0,207.67,66.54Z" style="fill:#000024"/><path d="M218.34,67.27a4.12,4.12,0,0,1-2.15-.55,4,4,0,0,1-1.47-1.51,4.57,4.57,0,0,1-.53-2.21,4.78,4.78,0,0,1,.5-2.22,3.85,3.85,0,0,1,1.38-1.5,3.73,3.73,0,0,1,5.31,1.47,4.66,4.66,0,0,1,.51,2.22s0,.07,0,.1a.49.49,0,0,0,0,.12h-7.11v-.63h6.69l-.3.31a3.62,3.62,0,0,0-.4-1.76,3.13,3.13,0,0,0-1.1-1.23,3.13,3.13,0,0,0-3.2,0,3,3,0,0,0-1.1,1.23,3.8,3.8,0,0,0-.4,1.78V63a3.65,3.65,0,0,0,.44,1.83,3.07,3.07,0,0,0,1.21,1.24,3.4,3.4,0,0,0,1.75.44,3.67,3.67,0,0,0,1.45-.28,3,3,0,0,0,1.13-.89l.45.53a3.32,3.32,0,0,1-1.32,1A4.1,4.1,0,0,1,218.34,67.27Z" style="fill:#000024"/><path d="M225.26,67.21V58.79H226V61.1l-.07-.26a2.86,2.86,0,0,1,1.14-1.56,3.42,3.42,0,0,1,2-.55v.79h-.18a2.6,2.6,0,0,0-2.1.88,3.63,3.63,0,0,0-.75,2.44v4.39Z" style="fill:#000024"/><path d="M242.21,58.73a3.49,3.49,0,0,1,1.69.39A2.75,2.75,0,0,1,245,60.31a4.4,4.4,0,0,1,.4,2v4.92h-.77V62.35a3.17,3.17,0,0,0-.66-2.16,2.38,2.38,0,0,0-1.85-.74,3,3,0,0,0-1.58.41,2.64,2.64,0,0,0-1,1.12,4.06,4.06,0,0,0-.35,1.74v4.49h-.77V62.35a3.17,3.17,0,0,0-.66-2.16,2.38,2.38,0,0,0-1.85-.74,3,3,0,0,0-1.58.41,2.64,2.64,0,0,0-1,1.12,4.06,4.06,0,0,0-.35,1.74v4.49h-.77V58.79h.74v2.32l-.11-.25A3.1,3.1,0,0,1,234,59.3a3.44,3.44,0,0,1,2-.57,3.23,3.23,0,0,1,2,.63,2.91,2.91,0,0,1,1,1.9l-.26-.12A3.32,3.32,0,0,1,240,59.4,3.48,3.48,0,0,1,242.21,58.73Z" style="fill:#000024"/><path d="M252.85,67.27a4.15,4.15,0,0,1-2.15-.55,3.86,3.86,0,0,1-1.46-1.51,4.46,4.46,0,0,1-.53-2.21,4.66,4.66,0,0,1,.5-2.22,3.71,3.71,0,0,1,1.38-1.5,3.59,3.59,0,0,1,2-.55,3.65,3.65,0,0,1,3.34,2,4.78,4.78,0,0,1,.5,2.22.34.34,0,0,1,0,.1v.12h-7.11v-.63H256l-.31.31a3.62,3.62,0,0,0-.39-1.76,3.13,3.13,0,0,0-1.1-1.23,3.15,3.15,0,0,0-3.21,0,3.13,3.13,0,0,0-1.1,1.23,3.8,3.8,0,0,0-.4,1.78V63a3.75,3.75,0,0,0,.44,1.83,3.14,3.14,0,0,0,1.21,1.24,3.43,3.43,0,0,0,1.76.44,3.66,3.66,0,0,0,1.44-.28,2.91,2.91,0,0,0,1.14-.89l.44.53a3.32,3.32,0,0,1-1.32,1A4.1,4.1,0,0,1,252.85,67.27Z" style="fill:#000024"/><path d="M262.88,67.27a3.83,3.83,0,0,1-3.46-2,5,5,0,0,1,0-4.45,3.85,3.85,0,0,1,3.46-2,3.68,3.68,0,0,1,1.92.51,3.79,3.79,0,0,1,1.36,1.47,5.45,5.45,0,0,1,0,4.56,3.56,3.56,0,0,1-1.35,1.49A3.69,3.69,0,0,1,262.88,67.27Zm.05-.73a3.09,3.09,0,0,0,1.65-.44,3.05,3.05,0,0,0,1.16-1.25,4.31,4.31,0,0,0,0-3.71,3.18,3.18,0,0,0-5.63,0,4.31,4.31,0,0,0,0,3.71,3.05,3.05,0,0,0,1.16,1.25A3.1,3.1,0,0,0,262.93,66.54Zm3.25.67V64.45l.14-1.47-.16-1.46V55.25h.78v12Z" style="fill:#000024"/><path d="M274.32,67.27a3.85,3.85,0,0,1-2.06-.55,3.92,3.92,0,0,1-1.43-1.51,4.89,4.89,0,0,1,0-4.43,3.9,3.9,0,0,1,1.43-1.5,3.85,3.85,0,0,1,2.06-.55,3.91,3.91,0,0,1,2.07.55,3.82,3.82,0,0,1,1.43,1.5,4.89,4.89,0,0,1,0,4.43,3.85,3.85,0,0,1-1.43,1.51A3.91,3.91,0,0,1,274.32,67.27Zm0-.73A3.16,3.16,0,0,0,276,66.1a3,3,0,0,0,1.15-1.25,4.31,4.31,0,0,0,0-3.71A3,3,0,0,0,276,59.9a3.17,3.17,0,0,0-1.67-.45,3.09,3.09,0,0,0-2.81,1.69,4.22,4.22,0,0,0,0,3.71,3,3,0,0,0,2.81,1.69Z" style="fill:#000024"/><path d="M45.12,53.92a17.37,17.37,0,0,1-15.47-9.51L23.3,31.72A14.25,14.25,0,0,0,7.62,24.18a2.09,2.09,0,1,1-.87-4.08A18.41,18.41,0,0,1,27,29.86l6.35,12.68a13.16,13.16,0,0,0,13.94,7l26.52-5.08a2.09,2.09,0,1,1,.78,4.1L48.08,53.66A16.53,16.53,0,0,1,45.12,53.92Z" style="fill:url(#Degradado_sin_nombre_5-6)"/><circle cx="47.15" cy="60.66" r="4.93" transform="translate(-29.09 51.11) rotate(-45)" style="fill:url(#Degradado_sin_nombre_5-7)"/><circle cx="66.84" cy="56.78" r="4.93" transform="translate(-20.57 63.89) rotate(-45)" style="fill:url(#Degradado_sin_nombre_5-8)"/><path d="M38.63,43.68c18.45-8.25,24.22-21.13,26-29.15a10.46,10.46,0,0,0-3.93.13l-34,7.71L34.26,38.3A14.7,14.7,0,0,0,38.63,43.68Z" style="fill:url(#Degradado_sin_nombre_5-9)"/><path d="M73.46,24.22a10.49,10.49,0,0,0-7.93-9.51c-.58,20.66-10,28.86-15.15,31.82l.36-.06,23.8-5Z" style="fill:url(#Degradado_sin_nombre_5-10)"/></svg>