<svg xmlns="http://www.w3.org/2000/svg" viewBox="0 0 838.45 192"><title>logo</title><g id="Layer_2" data-name="Layer 2"><path d="M394.29,92.33l-.22-40.87-54,86.5h25.63c2.73-4.33,5.47-8.6,8.12-12.94l.15.06,9.75-15Z" transform="translate(-5.28 -13)" style="fill:#032d77"/><path d="M394.07,51.46l.22,40.87L404.78,110h-21l-9.75,15h40.55c2.66,4.28,5.32,8.61,8,12.88h25.7Z" transform="translate(-5.28 -13)" style="fill:#1c4099"/><polygon points="475.78 56.94 451.93 39.94 452 125.17 475.86 125.17 475.86 91.9 475.78 80.92 475.78 56.94" style="fill:#032d77"/><path d="M513.77,108.55c7.83-2.11,12-3.59,17.07-8.66s7.53-9.72,7.53-16.06V81.19c0-8.18-3.33-13.68-11.52-19.54s-19.5-8.71-31-8.71H457.2l23.86,17h13.37c4.94,0,11.15.9,14.62,3.44s4.72,4.85,4.72,8.34a10.1,10.1,0,0,1-4.72,8.87c-3.47,2.48-6,3.38-10.93,3.38l-17.06,0,.07,11,30.43,33.27h29.1Z" transform="translate(-5.28 -13)" style="fill:#1c4099"/><polygon points="630.13 40.04 625.1 40.04 596.89 86.46 596.97 126.76 650.58 40.04 630.13 40.04" style="fill:#1c4099"/><polygon points="568.68 40.04 564.84 40.04 563.88 40.04 548.22 40.04 543.5 40.04 596.97 126.76 596.89 86.46 568.68 40.04" style="fill:#032d77"/><path d="M685.25,51.46l.22,40.87L696,110h-21L665,125l.15.06H705.7c2.66,4.28,5.32,8.61,8,12.88h25.7Z" transform="translate(-5.28 -13)" style="fill:#1c4099"/><path d="M685.47,92.33l-.22-40.87-54,86.5h25.63c2.73-4.33,5.46-8.6,8.12-12.94l9.9-15Z" transform="translate(-5.28 -13)" style="fill:#032d77"/><polygon points="743.18 125.17 767.03 125.17 767.03 78.07 743.18 38.46 743.18 125.17" style="fill:#032d77"/><polygon points="743.18 38.46 767.03 78.07 838.45 126.76 814.59 87.1 743.18 38.46" style="fill:#1c4099"/><polygon points="814.59 40.04 814.59 87.1 838.45 126.76 838.45 40.04 814.59 40.04" style="fill:#032d77"/><path d="M143,24.38l24.15,108c1.2,2.77,4.32,4.63,7.85,4.68l38.37.56c6.54.09,10.75-5.74,7.6-10.51L187.48,13.12" transform="translate(-5.28 -13)" style="fill:#e67e22"/><path d="M237.83,13.12,284.24,132a8.5,8.5,0,0,0,7.86,5.19l38.37.62c6.53.1,10.75-6.35,7.6-11.64L271.73,13" transform="translate(-5.28 -13)" style="fill:#e67e22"/><polyline points="131.74 124.9 214.4 0 266.46 0 187 123.95" style="fill:#d35400"/><polyline points="151.21 125 266.46 0 187 123.95" style="fill:#e67e22;opacity:0.30000000000000004"/><polyline points="182.21 0.31 56.85 192 0 192 121.93 0.41" style="fill:#d35400"/><polyline points="150.21 1 1.21 192 1 192 122.21 1" style="fill:#e67e22;opacity:0.30000000000000004"/><path d="M136.62,181.85l4-2.76a7.61,7.61,0,0,0,6.9,4.46c2.6,0,5.23-1.27,5.72-3.67.65-3.27-3.4-5.42-5.8-6.82-3.07-1.8-6.62-4.32-5.55-9.55.92-4.44,5.28-7.56,10.43-7.56,4.26,0,7.52,2.5,8.32,5.76l-4,2.72a5,5,0,0,0-5-3.64,4.81,4.81,0,0,0-4.82,3.71c-.51,2.76,2.46,4.07,5.19,5.63,4.44,2.6,7.21,5.62,6.29,10.06-1,4.8-5.25,8.34-11.42,8.34C141.48,188.53,138.05,185.68,136.62,181.85Z" transform="translate(-5.28 -13)" style="fill:#032d77"/><path d="M164.79,175.68l3.73-19.16h5.07l-3.71,19.14c-.88,4.55,1.33,7.93,5.2,7.93,3.57,0,6.58-2.7,7.6-7.93l3.71-19.14h5.08l-3.72,19.16c-1.64,8.43-7.07,12.91-13.47,12.91C167.25,188.59,163.4,182.86,164.79,175.68Z" transform="translate(-5.28 -13)" style="fill:#032d77"/><path d="M199,156.52h9.41c5.66,0,10.12,4,9.14,10.58-.88,6-5.64,10-13.12,10H200L197.91,188h-5.08Zm13.69,10.54c.51-3.49-2-5.64-5.22-5.64h-4.33L201,172.18l4.31,0C209.55,172.22,212.15,170.17,212.64,167.06Z" transform="translate(-5.28 -13)" style="fill:#032d77"/><path d="M229.38,161.38l-1.56,8.07h11l-1,4.92h-11l-1.7,8.71H238l-1,4.92H219.12l6.12-31.48h17.93l-.94,4.86Z" transform="translate(-5.28 -13)" style="fill:#032d77"/><path d="M260.41,175.42,267,188h-5.59l-6-12.19h-4L249.05,188H244l6.09-31.48h9.08c5.32,0,10.2,3.71,9.17,10.17A10.65,10.65,0,0,1,260.41,175.42Zm-2.09-14H254.2l-2,10.29h4.12c3.93,0,6.47-2.32,6.92-5.14C263.7,163.45,261.35,161.42,258.32,161.42Z" transform="translate(-5.28 -13)" style="fill:#032d77"/><path d="M307.9,155.83,301.65,188h-5.1l3.3-17-13,16.5h0L280.45,171l-3.3,17h-5.09l6.25-32.17H279l9.26,22.74,19-22.74Z" transform="translate(-5.28 -13)" style="fill:#032d77"/><path d="M319.69,161.38l-1.56,8.07h11l-1,4.92h-11l-1.7,8.71h12.85l-1,4.92H309.44l6.11-31.48h17.93l-.93,4.86Z" transform="translate(-5.28 -13)" style="fill:#032d77"/><path d="M350.73,175.42,357.31,188h-5.58l-6-12.19h-4L339.36,188h-5.07l6.09-31.48h9.08c5.31,0,10.2,3.71,9.16,10.17A10.62,10.62,0,0,1,350.73,175.42Zm-2.09-14h-4.12l-2,10.29h4.12c3.93,0,6.46-2.32,6.91-5.14C354,163.45,351.67,161.42,348.64,161.42Z" transform="translate(-5.28 -13)" style="fill:#032d77"/><path d="M362.74,171.89C364.6,161,374,155.58,381,156a12,12,0,0,1,10,6.37l-3.75,3.3c-2.07-3.3-4.46-4.69-7.43-4.69-5.48,0-10.74,4.59-12,10.92-1.27,6.52,2.31,11.64,8.17,11.64,3.18,0,5.87-1.55,8.45-3.79l2.15,4.28a16.92,16.92,0,0,1-11.31,4.47C366.38,188.51,361.1,181.44,362.74,171.89Z" transform="translate(-5.28 -13)" style="fill:#032d77"/><path d="M411.63,183.21H397.9L395.05,188h-5.9l20.12-32.13h.92L417.84,188h-5.15Zm-.94-4.23-2.79-12.56L400.42,179Z" transform="translate(-5.28 -13)" style="fill:#032d77"/><path d="M450.5,172.3C448.64,186.4,436,188,431.65,188h-8.59l6.11-31.48h8.6C444.31,156.5,452,160.64,450.5,172.3Zm-13.73-10.88h-3.46l-4.22,21.66h3.52c6.95,0,11.76-4.34,12.73-10.82C446.44,165.07,442,161.42,436.77,161.42Z" transform="translate(-5.28 -13)" style="fill:#032d77"/><path d="M455.31,172.34c1.4-9.63,9.2-16.68,17.95-16.27,8.34.37,13.39,7.34,12,16.52-1.45,9.65-9.32,16.46-17.95,16C459.06,188.25,454,181.46,455.31,172.34Zm24.9.15c1.09-6.42-2.44-11.38-7.87-11.5-5.59-.12-10.88,4.92-12,11.37-1.07,6.28,2.35,11.19,7.84,11.32S479.1,178.94,480.21,172.49Z" transform="translate(-5.28 -13)" style="fill:#032d77"/><rect x="132.21" y="131" width="706" height="4" style="fill:#032d77"/><rect x="132.21" y="134" width="706" height="4" style="fill:#e67e22"/></g></svg>