<svg id="Camada_1" data-name="Camada 1" xmlns="http://www.w3.org/2000/svg" xmlns:xlink="http://www.w3.org/1999/xlink" viewBox="0 0 774.25 774.24"><defs><style>.cls-1{fill:url(#radial-gradient);}.cls-2{fill:url(#radial-gradient-2);}.cls-3{fill:url(#radial-gradient-3);}</style><radialGradient id="radial-gradient" cx="360.82" cy="930.01" r="996.05" gradientUnits="userSpaceOnUse"><stop offset="0.26" stop-color="#36b649"/><stop offset="0.76" stop-color="#57c965"/></radialGradient><radialGradient id="radial-gradient-2" cx="280.19" cy="688.52" r="611.02" gradientUnits="userSpaceOnUse"><stop offset="0.22" stop-color="#e7e7e7"/><stop offset="0.88" stop-color="#fcfcfc"/></radialGradient><radialGradient id="radial-gradient-3" cx="286.65" cy="560.52" r="273.35" gradientUnits="userSpaceOnUse"><stop offset="0.22" stop-color="#e7e7e7"/><stop offset="0.88" stop-color="#fff"/></radialGradient></defs><title>what</title><path class="cls-1" d="M774.14,615.21a159,159,0,0,1-159,159H158.94a159,159,0,0,1-159-159V159A159,159,0,0,1,158.94,0H615.11a159,159,0,0,1,159,159Z" transform="translate(0.11 0)"/><path class="cls-2" d="M392.23,101.68c-156.16,0-282.76,126.57-282.76,282.76a281.28,281.28,0,0,0,39.64,144.37L113.46,672.55l141.7-40.8A281.63,281.63,0,0,0,392.23,667.2C548.41,667.2,675,540.59,675,384.44S548.41,101.68,392.23,101.68Zm3.2,518.57a233.56,233.56,0,0,1-133-41.37l-80.68,23.26L202.37,519a233.72,233.72,0,0,1-41.69-133.5c0-129.66,105.1-234.75,234.75-234.75S630.18,255.84,630.18,385.5,525.08,620.25,395.43,620.25Z" transform="translate(0.11 0)"/><path class="cls-3" d="M320.74,362q4.92-5.66,9.82-11.31c5.51-6.39,13.76-12.55,14.19-21.75.41-8.83-2.74-17.63-5.86-25.64-2-5.16-4.07-10.3-6.05-15.48-3.58-9.41-8.19-22.58-13.38-28.09-7-7.45-19.07-9-28.61-4.45,0,0-55.48,26.66-38.4,80,0,0,33.08,150.44,199.55,181.39,0,0,59.73,8.55,75.74-27.75,3.46-7.83,5.79-18.84,5.22-27.35-.57-8.27-6.39-13.74-13.2-17.67-8.77-5-16.57-9.72-26.57-14.66-8.67-4.26-18.64-10.58-28.62-7.83-7.31,2-12.56,8.71-17.52,14-6.46,6.85-13.07,13.62-19.61,20.43C427.44,455.92,343.14,425,320.74,362Z" transform="translate(0.11 0)"/></svg>